<?xml version="1.0" encoding="utf-8"?>
<!-- Generator: Adobe Adobe Illustrator 24.2.0, SVG Export Plug-In . SVG Version: 6.00 Build 0)  -->
<svg version="1.1" id="Layer_1" xmlns="http://www.w3.org/2000/svg" xmlns:xlink="http://www.w3.org/1999/xlink" x="0px" y="0px"
	 width="792px" height="612px" viewBox="0 0 792 612" style="enable-background:new 0 0 792 612;" xml:space="preserve">
<style type="text/css">
	.st0{fill:none;stroke:#000000;stroke-miterlimit:10;}
	.st1{fill:#5587BF;stroke:#000000;stroke-width:3;stroke-miterlimit:10;}
	.st2{fill:none;stroke:#000000;stroke-width:3;stroke-miterlimit:10;}
	.st3{fill:#D1E3FF;stroke:#000000;stroke-miterlimit:10;}
	.st4{fill:#808080;stroke:#000000;stroke-miterlimit:10;}
	.st5{fill:#A1A1A1;stroke:#000000;stroke-width:3;stroke-miterlimit:10;}
	.st6{fill:#E0E0E0;stroke:#000000;stroke-miterlimit:10;}
	.st7{fill:#A1A1A1;}
	.st8{fill:#5587BF;}
	.st9{fill:#595959;}
	.st10{fill:#FFFFFF;}
	.st11{stroke:#000000;stroke-width:1.5;stroke-miterlimit:10;}
	.st12{fill:none;stroke:#FFFFFF;stroke-width:3;stroke-miterlimit:10;}
	.st13{fill:#707070;}
	.st14{fill:#FFFFFF;stroke:#000000;stroke-width:3;stroke-miterlimit:10;}
</style>
<g>
	<g>
		<path d="M166.75,448.8c-1.88-1.14-2.56-3.33-2.24-5.45c0.4-2.66,2.37-4.52,4.95-5.14c6.11-1.46,11.05,3.32,13.7,8.26
			c5.27,9.85,6.07,23.9-3.26,31.63c-7.83,6.49-19.56,6.75-28.45,2.41c-9.43-4.6-16.56-13.83-18.09-24.28
			c-1.58-10.82,2.87-22.3,11.19-29.35c10.08-8.54,24.5-10.01,37.17-10.44c14.14-0.47,28.32-0.33,42.47-0.45
			c14.28-0.12,28.56-0.25,42.84-0.37c56.55-0.49,113.1-0.98,169.65-1.47c28.56-0.25,57.12-0.49,85.68-0.74
			c6.48-0.06,13.25-0.65,19.69,0.26c5.85,0.82,10.27,3.82,13.09,9.03c2.84,5.25,4.37,11.43,5.53,17.25
			c1.29,6.44,1.81,13.17,0.75,19.69c-1.78,11.01-8.75,21.6-19.71,25.24c-10.46,3.48-20.76-1.79-26.33-10.83
			c-5.18-8.41-6.81-21.04-0.08-29.16c3.01-3.63,7.38-5.37,12.04-4.39c3.92,0.83,8.03,3.52,8.58,7.8c0.34,2.64-0.83,5.69-3.21,7.05
			c-2.27,1.29-5.31,0.67-6.69-1.58c-1.01-1.64-3.61-0.14-2.59,1.51c2.79,4.52,9.22,4.88,12.78,1.06c3.44-3.7,3.61-9.48,0.59-13.47
			c-2.73-3.6-7.32-5.54-11.78-5.65c-5.01-0.12-9.41,2.35-12.43,6.28c-6.88,8.98-5.6,22.21-0.11,31.52
			c5.75,9.75,16.58,16.03,27.98,13.32c11.7-2.78,20.36-13.24,23.17-24.59c1.69-6.82,1.62-13.91,0.59-20.82
			c-0.99-6.68-2.71-13.53-5.49-19.7c-2.51-5.58-6.58-10.03-12.58-11.77c-6.63-1.92-14-1.15-20.81-1.09
			c-16.28,0.14-32.56,0.28-48.84,0.42c-32.42,0.28-64.83,0.56-97.25,0.84c-32.56,0.28-65.12,0.56-97.68,0.84
			c-32.46,0.28-64.95,0.14-97.4,0.88c-14.04,0.32-29.64,1.66-41.04,10.78c-9.23,7.38-14.26,19.8-12.88,31.53
			c1.34,11.39,8.69,21.69,18.82,27c9.7,5.08,22.38,5.28,31.46-1.34c10.26-7.48,11.34-21.18,7-32.33
			c-2.15-5.52-5.66-11.16-11.5-13.25c-4.71-1.68-10.99-0.69-13.52,4.08c-2.07,3.92-1.25,9.17,2.68,11.54
			C166.9,452.39,168.41,449.8,166.75,448.8L166.75,448.8z"/>
	</g>
</g>
<g>
	<g>
		<path d="M171.74,438.63c23.85,1.71,47.69,3.39,71.56,4.77c23.87,1.39,47.75,2.49,71.66,3.03c23.85,0.54,47.72,0.53,71.57-0.31
			c23.82-0.84,47.62-2.51,71.31-5.26c22.02-2.56,44.97-7.45,67-2.5c2.67,0.6,5.3,1.36,7.89,2.25c1.83,0.63,2.62-2.27,0.8-2.89
			c-21.3-7.33-44.11-3.85-65.89-1.05c-23.74,3.05-47.6,5.01-71.51,6.08c-23.83,1.07-47.7,1.27-71.55,0.88
			c-24.02-0.39-48.03-1.38-72.01-2.7c-23.99-1.32-47.97-2.96-71.94-4.67c-2.96-0.21-5.93-0.42-8.89-0.63
			C169.81,435.49,169.82,438.5,171.74,438.63L171.74,438.63z"/>
	</g>
</g>
<g>
	<g>
		<path d="M312.96,448.33c3.41,6.57,7.38,12.83,11.89,18.7c2.24,2.92,4.6,5.75,7.08,8.47c2.42,2.65,4.92,5.35,7.76,7.57
			c2.74,2.13,5.83,3.49,9.31,3.69c3.37,0.19,6.73-0.71,9.74-2.17c6.51-3.16,10.9-9.3,14.77-15.19c5.13-7.82,10.19-15.68,15.29-23.52
			c1.05-1.62-1.54-3.13-2.59-1.51c-4.3,6.62-8.6,13.24-12.9,19.85c-3.69,5.68-7.33,11.97-12.98,15.95
			c-5.29,3.73-12.2,5.07-17.81,1.27c-2.78-1.89-5.14-4.5-7.43-6.94c-2.38-2.54-4.65-5.18-6.81-7.91
			c-4.87-6.15-9.11-12.8-12.73-19.76C314.66,445.1,312.07,446.62,312.96,448.33L312.96,448.33z"/>
	</g>
</g>
<g>
	<g>
		<path d="M388.15,447.53c4.15,6.73,8.5,13.33,13.06,19.78c2.28,3.23,4.61,6.42,7,9.57c2.07,2.74,4.14,5.49,6.89,7.58
			c2.48,1.89,5.52,3.08,8.66,2.36c3.46-0.78,5.77-3.72,7.95-6.29c5.1-6.03,10.27-12.01,15.25-18.15
			c5.32-6.56,10.35-13.4,14.24-20.93c0.89-1.71-1.7-3.23-2.59-1.51c-6.62,12.8-16.43,23.58-25.67,34.5
			c-1.17,1.38-2.34,2.77-3.51,4.15c-1.15,1.36-2.28,2.82-3.69,3.93c-2.45,1.95-5.28,1.82-7.86,0.22c-2.79-1.73-4.84-4.44-6.79-7.01
			c-2.2-2.9-4.35-5.83-6.46-8.79c-4.86-6.82-9.49-13.81-13.89-20.94C389.73,444.38,387.14,445.88,388.15,447.53L388.15,447.53z"/>
	</g>
</g>
<g>
	<g>
		<path d="M241.64,445.79c7.79,12.43,17.01,23.98,27.46,34.28c1.27,1.25,2.55,2.49,3.86,3.7c1.26,1.16,2.58,2.23,4.33,2.45
			c3.6,0.45,6.66-2.51,9.21-4.63c5.3-4.4,10.2-9.3,14.63-14.59c5.05-6.04,9.49-12.57,13.22-19.5c0.92-1.7-1.67-3.22-2.59-1.51
			c-6.22,11.55-14.4,21.97-24.18,30.72c-1.15,1.03-2.33,2.04-3.52,3.03c-1.33,1.09-2.68,2.33-4.25,3.06
			c-1.59,0.74-2.86,0.47-4.15-0.63c-1.32-1.13-2.55-2.38-3.8-3.6c-4.99-4.87-9.71-10.03-14.12-15.43
			c-4.9-5.99-9.4-12.31-13.51-18.86C243.2,442.64,240.61,444.15,241.64,445.79L241.64,445.79z"/>
	</g>
</g>
<g>
	<g>
		<path d="M458.35,442.05c7.13,9.57,14.27,19.15,21.4,28.72c1.78,2.39,3.57,4.79,5.35,7.18c1.61,2.16,3.12,4.46,4.9,6.49
			c1.46,1.66,3.57,2.84,5.79,1.97c2.24-0.88,3.82-3.34,5.26-5.16c3.75-4.73,7.03-9.79,9.79-15.17c0.88-1.72-1.71-3.23-2.59-1.51
			c-2.25,4.39-4.84,8.59-7.78,12.55c-1.4,1.89-2.85,3.82-4.49,5.51c-0.64,0.66-1.41,1.37-2.38,0.94c-0.92-0.4-1.61-1.38-2.19-2.16
			c-6.53-8.68-12.98-17.42-19.47-26.13c-3.67-4.92-7.33-9.84-11-14.76C459.8,439.01,457.2,440.5,458.35,442.05L458.35,442.05z"/>
	</g>
</g>
<g>
	<g>
		<path d="M322.39,448.34c6.5,9.49,13.83,18.58,22.09,26.6c1.92,1.87,4.05,2.96,6.79,2.53c2.36-0.37,4.51-1.65,6.26-3.24
			c3.5-3.17,5.46-7.63,7.78-11.64c3.24-5.59,7.13-10.76,11.59-15.44c1.33-1.4-0.79-3.52-2.12-2.12c-3.59,3.77-6.85,7.87-9.7,12.23
			c-2.55,3.91-4.47,8.23-7.18,12.03c-1.24,1.73-2.74,3.32-4.62,4.34c-2.28,1.24-4.44,1.29-6.38-0.53
			c-3.85-3.61-7.39-7.65-10.8-11.67c-3.96-4.67-7.66-9.55-11.12-14.61C323.89,445.24,321.29,446.74,322.39,448.34L322.39,448.34z"/>
	</g>
</g>
<g>
	<g>
		<path d="M400.54,447.33c2.93,5.05,5.86,10.09,8.79,15.14c2.6,4.47,5.09,9.15,8.71,12.91c1.57,1.62,3.54,2.88,5.83,1.94
			c2.17-0.89,3.41-3.1,4.65-4.96c3.26-4.89,6.51-9.77,9.77-14.66c3.67-5.51,7.34-11.01,11.01-16.52c1.07-1.61-1.52-3.11-2.59-1.51
			c-5.96,8.95-11.92,17.9-17.89,26.84c-1.41,2.12-2.75,4.34-4.27,6.38c-0.47,0.63-1.14,1.51-1.95,1.72
			c-1.02,0.25-1.8-0.68-2.44-1.34c-3.32-3.45-5.6-7.76-7.99-11.87c-3.01-5.19-6.03-10.38-9.04-15.56
			C402.16,444.15,399.56,445.66,400.54,447.33L400.54,447.33z"/>
	</g>
</g>
<g>
	<g>
		<path d="M470.66,440.76c3.97,7.38,8.28,14.56,12.93,21.52c1.13,1.69,2.28,3.37,3.45,5.03c1.09,1.54,2.12,3.29,3.48,4.61
			c1.21,1.17,2.83,1.9,4.52,1.42c1.72-0.48,2.96-2.02,4.17-3.23c3.55-3.55,7.11-7.11,10.66-10.66c1.37-1.37-0.75-3.49-2.12-2.12
			c-3.61,3.61-7.22,7.23-10.84,10.84c-0.7,0.7-1.55,1.88-2.52,2.23c-0.83,0.3-1.47-0.29-2.01-0.87c-1.56-1.67-2.79-3.78-4.09-5.66
			c-5.47-7.92-10.49-16.15-15.04-24.63C472.33,437.54,469.74,439.05,470.66,440.76L470.66,440.76z"/>
	</g>
</g>
<g>
	<g>
		<path d="M186.35,455.61c2.66,4.38,5.65,8.56,8.93,12.5c1.69,2.03,3.47,4,5.32,5.89c1.47,1.5,3.13,3.68,5.46,3.53
			c2.47-0.15,4.23-2.53,5.59-4.33c1.47-1.95,2.71-4.06,4.07-6.09c2.72-4.05,6.11-7.55,9.48-11.05c3.83-3.96,7.65-7.97,10.6-12.64
			c1.03-1.64-1.56-3.14-2.59-1.51c-4.76,7.53-11.86,13.11-17.38,20.02c-2.83,3.54-4.85,7.74-7.9,11.1c-0.55,0.61-1.44,1.7-2.37,1.44
			c-0.91-0.25-1.89-1.64-2.53-2.29c-1.65-1.67-3.24-3.41-4.77-5.19c-3.46-4.04-6.55-8.36-9.31-12.9
			C187.94,452.45,185.34,453.95,186.35,455.61L186.35,455.61z"/>
	</g>
</g>
<g>
	<g>
		<path d="M249.54,444.74c5.59,9.62,12.35,18.56,20.12,26.53c1.76,1.81,3.62,4.11,5.97,5.14c2.73,1.21,4.65-0.32,6.32-2.36
			c3.68-4.51,7.51-8.92,11.46-13.2c4.53-4.91,9.24-9.66,14.1-14.24c1.41-1.33-0.72-3.45-2.12-2.12
			c-7.91,7.47-15.41,15.37-22.43,23.68c-0.85,1.01-1.7,2.02-2.54,3.04c-0.62,0.76-1.61,2.52-2.7,2.67
			c-1.05,0.14-2.14-0.98-2.83-1.63c-0.96-0.9-1.89-1.84-2.82-2.78c-3.59-3.66-6.98-7.53-10.13-11.59c-3.6-4.65-6.88-9.56-9.83-14.65
			C251.17,441.56,248.57,443.07,249.54,444.74L249.54,444.74z"/>
	</g>
</g>
<g>
	<g>
		<path d="M171.34,487.04c45.94-0.03,91.89-0.05,137.83-0.08c45.71-0.03,91.42-0.05,137.13-0.08c25.79-0.02,51.57-0.03,77.36-0.05
			c1.93,0,1.93-3,0-3c-45.94,0.03-91.89,0.05-137.83,0.08c-45.71,0.03-91.42,0.05-137.13,0.08c-25.79,0.02-51.57,0.03-77.36,0.05
			C169.41,484.04,169.4,487.04,171.34,487.04L171.34,487.04z"/>
	</g>
</g>
<g>
	<g>
		<path d="M186.92,472.73c2.29,1.91,4.58,3.81,6.87,5.72c2,1.66,3.95,3.5,6.13,4.92c1.94,1.27,4.18,1.93,6.49,1.45
			c2.23-0.47,4.14-1.93,5.79-3.43c3.9-3.55,7.51-7.48,11.03-11.4c3.53-3.93,6.93-7.98,10.17-12.14c3.7-4.74,7.21-9.62,10.53-14.64
			c1.07-1.61-1.53-3.12-2.59-1.51c-5.43,8.2-11.37,16.04-17.83,23.46c-3.22,3.7-6.56,7.29-10.02,10.77
			c-2.7,2.72-6.51,7.6-10.86,5.55c-2.37-1.12-4.35-3.17-6.35-4.83c-2.42-2.01-4.83-4.02-7.25-6.03
			C187.57,469.38,185.44,471.49,186.92,472.73L186.92,472.73z"/>
	</g>
</g>
<g>
	<g>
		<path d="M168.4,487.2c0.28,11.41,0.56,22.82,0.84,34.23c0.05,1.93,3.05,1.93,3,0c-0.28-11.41-0.56-22.82-0.84-34.23
			C171.35,485.27,168.35,485.26,168.4,487.2L168.4,487.2z"/>
	</g>
</g>
<g>
	<g>
		<path d="M522.93,487.26c0.56,11.43,0.91,22.86,1.05,34.3c0.02,1.93,3.02,1.93,3,0c-0.15-11.44-0.5-22.87-1.05-34.3
			C525.84,485.34,522.83,485.33,522.93,487.26L522.93,487.26z"/>
	</g>
</g>
<g>
	<g>
		<path d="M172.17,524.28c45.9-0.46,91.81-0.78,137.72-0.96c45.67-0.17,91.35-0.2,137.02-0.09c25.76,0.06,51.53,0.17,77.29,0.33
			c1.93,0.01,1.93-2.99,0-3c-45.91-0.28-91.81-0.41-137.72-0.4c-45.67,0.01-91.35,0.17-137.02,0.47
			c-25.76,0.17-51.53,0.38-77.29,0.64C170.24,521.3,170.23,524.3,172.17,524.28L172.17,524.28z"/>
	</g>
</g>
<g>
	<g>
		<path d="M333.12,518.68c-1.09-10.13,2.51-20.8,10.02-27.8c2.19-2.04,4.59-3.02,7.59-3.05c2.83-0.03,5.99,0.05,8.7,0.93
			c4.63,1.5,6.78,6.41,7.89,10.78c1.73,6.84,1.78,13.98,1.86,21c0.02,1.93,3.02,1.93,3,0c-0.08-6.94-0.18-13.94-1.72-20.74
			c-1.13-5.03-3.42-10.67-8.3-13.13c-2.78-1.4-5.93-1.58-8.98-1.76c-3.18-0.18-6.41-0.05-9.23,1.61c-4.8,2.82-8.45,8.26-10.7,13.23
			c-2.67,5.92-3.83,12.47-3.14,18.95C330.33,520.58,333.33,520.6,333.12,518.68L333.12,518.68z"/>
	</g>
</g>
<g>
	<g>
		<path d="M373.33,518.69c-0.65-5.24-0.26-10.54,1.24-15.61c1.36-4.61,3.59-9.83,7.45-12.9c3.56-2.83,8.83-3.19,12.75-0.9
			c4.11,2.4,6.31,6.98,7.28,11.47c1.36,6.25,1,12.93,1.15,19.29c0.05,1.93,3.05,1.93,3,0c-0.16-6.43,0.11-13.07-1.12-19.41
			c-0.99-5.11-3.4-10.12-7.71-13.23c-4.31-3.11-10.19-3.41-14.91-1.05c-4.89,2.45-7.73,7.75-9.66,12.63
			c-2.47,6.22-3.3,13.08-2.48,19.71C370.57,520.58,373.57,520.61,373.33,518.69L373.33,518.69z"/>
	</g>
</g>
<g>
	<g>
		<path d="M406.46,518.67c-0.83-9.97,2.63-20.78,10.06-27.7c1.79-1.67,4.01-3.13,6.5-3.42c2.15-0.25,4.21,0.48,5.96,1.7
			c4.06,2.84,6.33,7.87,7.76,12.45c1.84,5.92,2.28,12.24,1.24,18.36c-0.32,1.89,2.57,2.7,2.89,0.8c1.06-6.22,0.82-12.6-0.87-18.69
			c-1.45-5.25-3.85-10.77-8.07-14.39c-4.3-3.7-9.9-4.26-14.72-1.14c-4.66,3.02-8.13,8.08-10.4,13.07
			c-2.69,5.93-3.9,12.46-3.35,18.96C403.62,520.58,406.62,520.6,406.46,518.67L406.46,518.67z"/>
	</g>
</g>
<g>
	<g>
		<path d="M442.17,518.26c-1.16-5.24-0.28-10.69,1.87-15.56c2.12-4.79,5.44-9.52,9.58-12.79c3.58-2.82,8.32-3.31,12.52-1.62
			c4.68,1.88,6.98,5.98,7.84,10.77c1.26,6.99,1.17,14.42,0.72,21.48c-0.12,1.93,2.88,1.92,3,0c0.44-7.1,0.39-14.38-0.69-21.42
			c-0.85-5.57-3.43-10.59-8.68-13.12c-4.43-2.14-9.79-2.35-14.19-0.02c-2.67,1.42-4.88,3.71-6.82,5.99
			c-2.01,2.38-3.78,4.96-5.18,7.75c-3.02,5.98-4.34,12.73-2.87,19.34C439.69,520.94,442.58,520.14,442.17,518.26L442.17,518.26z"/>
	</g>
</g>
<g>
	<g>
		<path d="M477.8,521.67c1.93,0,1.93-3,0-3C475.87,518.67,475.86,521.67,477.8,521.67L477.8,521.67z"/>
	</g>
</g>
<g>
	<g>
		<path d="M478.81,519.06c-0.33-9.5,2.92-19.09,9.21-26.26c1.5-1.72,3.34-3.47,5.61-4.08c2.48-0.66,4.26,0.83,5.8,2.59
			c3.28,3.74,6.41,7.69,8.18,12.39c1.92,5.09,2.48,10.66,1.51,16.02c-0.34,1.89,2.55,2.7,2.89,0.8c0.99-5.48,0.66-11.14-1.1-16.43
			c-1.8-5.42-5.08-9.83-8.73-14.14c-1.68-1.99-3.57-3.92-6.27-4.3c-2.7-0.39-5.25,0.84-7.32,2.47c-4.12,3.24-7.21,8.2-9.29,12.95
			c-2.48,5.67-3.71,11.82-3.5,18.01C475.88,520.98,478.88,520.99,478.81,519.06L478.81,519.06z"/>
	</g>
</g>
<g>
	<g>
		<path d="M511.77,519.06c-0.33-11.43,4.19-22.68,12.35-30.7c1.38-1.36-0.74-3.48-2.12-2.12c-8.7,8.54-13.58,20.63-13.23,32.82
			C508.82,520.99,511.82,521,511.77,519.06L511.77,519.06z"/>
	</g>
</g>
<g>
	<g>
		<path d="M297.02,519.61c0.17-5.67,1.11-11.27,2.81-16.69c1.36-4.34,3.13-9.04,6.67-12.1c3.46-3,8.04-2.75,11.76-0.38
			c4.18,2.65,6.34,7.27,7.68,11.87c1.76,6.01,2.85,12.26,4.19,18.38c0.41,1.88,3.31,1.09,2.89-0.8c-1.33-6.05-2.42-12.22-4.13-18.17
			c-1.51-5.22-3.95-10.24-8.5-13.44c-4.07-2.87-9.43-3.69-13.86-1.13c-4.36,2.52-6.83,7.33-8.53,11.88
			c-2.46,6.58-3.77,13.57-3.98,20.59C293.96,521.54,296.96,521.54,297.02,519.61L297.02,519.61z"/>
	</g>
</g>
<g>
	<g>
		<path d="M261.57,519.94c-0.32-5.16,0.34-10.3,1.98-15.21c1.54-4.62,3.95-9.37,7.46-12.8c3.21-3.14,7.52-4.4,11.49-1.86
			c4,2.56,6.04,7.19,7.25,11.59c1.76,6.34,2.69,12.98,3.49,19.5c0.23,1.89,3.23,1.92,3,0c-0.8-6.56-1.73-13.21-3.41-19.62
			c-1.33-5.07-3.54-10.09-7.81-13.35c-4.14-3.17-9.49-3.33-13.78-0.33c-4.4,3.07-7.32,8.06-9.37,12.91
			c-2.56,6.04-3.7,12.63-3.29,19.17C258.69,521.86,261.69,521.87,261.57,519.94L261.57,519.94z"/>
	</g>
</g>
<g>
	<g>
		<path d="M225.54,520.47c-0.62-9.19,2.4-18.54,8.43-25.54c2.83-3.28,7-7.52,11.68-5.23c4.71,2.31,6.27,8.32,7.38,12.99
			c1.47,6.19,2.6,12.47,3.88,18.71c0.39,1.89,3.28,1.09,2.89-0.8c-1.28-6.23-2.41-12.52-3.88-18.71
			c-1.26-5.29-3.13-11.39-8.05-14.39c-2.23-1.36-4.95-1.87-7.48-1.14c-2.53,0.73-4.65,2.46-6.5,4.27
			c-3.69,3.61-6.56,7.99-8.52,12.76c-2.22,5.38-3.21,11.26-2.82,17.07C222.67,522.38,225.67,522.4,225.54,520.47L225.54,520.47z"/>
	</g>
</g>
<g>
	<g>
		<path d="M189.13,520.72c0.96-8.8,2.46-18.48,8.19-25.59c2.76-3.42,7.54-7.49,11.84-4.05c3.74,3,6.2,7.66,7.72,12.13
			c2,5.9,2.59,12.13,3.16,18.3c0.18,1.91,3.18,1.92,3,0c-1.04-11.22-2.39-24.31-11.43-32.28c-2.05-1.81-4.43-2.83-7.19-2.41
			c-2.6,0.39-4.93,1.87-6.84,3.63c-3.78,3.48-6.32,8.13-8.01,12.93c-1.96,5.57-2.8,11.48-3.44,17.32
			C185.92,522.64,188.93,522.62,189.13,520.72L189.13,520.72z"/>
	</g>
</g>
<g>
	<g>
		<path d="M187.61,521.31c-0.41-4-0.81-8.01-1.23-12.01c-0.38-3.65-0.8-7.34-1.94-10.84c-1.91-5.9-6.31-11.62-12.79-12.61
			c-1.89-0.29-2.7,2.6-0.8,2.89c6,0.92,9.59,6.34,11.08,11.81c0.88,3.23,1.22,6.57,1.56,9.89c0.37,3.62,0.74,7.24,1.11,10.86
			C184.81,523.22,187.81,523.24,187.61,521.31L187.61,521.31z"/>
	</g>
</g>
<g>
	<g>
		<path d="M136.93,397.84c55.88-0.02,111.75-0.03,167.63-0.05c55.59-0.02,111.18-0.03,166.77-0.05c31.36-0.01,62.72-0.02,94.08-0.03
			c1.93,0,1.93-3,0-3c-55.88,0.02-111.75,0.03-167.63,0.05c-55.59,0.02-111.18,0.03-166.77,0.05c-31.36,0.01-62.72,0.02-94.08,0.03
			C135,394.84,134.99,397.84,136.93,397.84L136.93,397.84z"/>
	</g>
</g>
<g>
	<g>
		<path d="M134.13,397.04c-0.14,5.48-0.05,10.97,0.27,16.44c0.11,1.92,3.11,1.93,3,0c-0.32-5.47-0.41-10.96-0.27-16.44
			C137.18,395.1,134.18,395.11,134.13,397.04L134.13,397.04z"/>
	</g>
</g>
<g>
	<g>
		<path d="M136.11,415.51c13.62-0.02,27.24-0.13,40.86-0.36c1.93-0.03,1.93-3.03,0-3c-13.62,0.22-27.24,0.34-40.86,0.36
			C134.18,412.51,134.17,415.51,136.11,415.51L136.11,415.51z"/>
	</g>
</g>
<g>
	<g>
		<path d="M548.97,415.45c2.93,0.21,5.86,0.25,8.79,0.1c2.95-0.15,5.91-0.63,8.87-0.34c0.81,0.08,1.5-0.75,1.5-1.5
			c0-0.88-0.69-1.42-1.5-1.5c-2.96-0.29-5.92,0.19-8.87,0.34c-2.93,0.15-5.86,0.11-8.79-0.1
			C547.04,412.32,547.05,415.32,548.97,415.45L548.97,415.45z"/>
	</g>
</g>
<g>
	<g>
		<path d="M565.12,396.57c0.09,2.83,0.18,5.66,0.27,8.48c0.04,1.36,0.09,2.71,0.13,4.07c0.04,1.21,0.19,2.59-0.3,3.74
			c-0.31,0.75-0.22,1.61,0.54,2.05c0.63,0.37,1.74,0.21,2.05-0.54c1.14-2.71,0.69-5.78,0.6-8.64c-0.1-3.05-0.19-6.11-0.29-9.16
			C568.06,394.65,565.06,394.64,565.12,396.57L565.12,396.57z"/>
	</g>
</g>
<g>
	<g>
		<path class="st8" d="M164.85,385.13c4.91-16.41,9.83-32.82,14.74-49.23c1.4-4.68,2.8-9.36,4.2-14.03
			c-1.67,0.44-3.34,0.88-5.01,1.32c2.49,2.98,3.33,7.08,4.39,10.71c1.29,4.43,2.68,8.84,4.17,13.21c3.03,8.91,6.48,17.68,10.28,26.3
			c2.12,4.8,4.36,9.54,6.71,14.22c0.73,1.45,2.77,1.86,4.1,1.08c1.47-0.86,1.81-2.65,1.08-4.1c-8.39-16.7-15.25-34.13-20.5-52.07
			c-1.41-4.83-2.71-9.64-6-13.58c-1.51-1.81-4.42-0.68-5.01,1.32c-4.91,16.41-9.83,32.82-14.74,49.23c-1.4,4.68-2.8,9.36-4.2,14.03
			C157.95,387.25,163.74,388.83,164.85,385.13L164.85,385.13z"/>
	</g>
</g>
<g>
	<g>
		<path class="st8" d="M171.53,366.02c8.45,0.36,16.92-0.01,25.31-1.1c1.61-0.21,3-1.23,3-3c0-1.46-1.38-3.21-3-3
			c-8.39,1.09-16.85,1.46-25.31,1.1c-1.62-0.07-3,1.43-3,3C168.53,364.7,169.9,365.95,171.53,366.02L171.53,366.02z"/>
	</g>
</g>
<g>
	<g>
		<path class="st8" d="M213.63,326.39c2.04,19.89,3.62,39.83,4.73,59.79c0.09,1.62,1.31,3,3,3c1.55,0,3.09-1.37,3-3
			c-1.11-19.96-2.69-39.9-4.73-59.79c-0.17-1.61-1.26-3-3-3C215.13,323.39,213.46,324.77,213.63,326.39L213.63,326.39z"/>
	</g>
</g>
<g>
	<g>
		<path class="st8" d="M220.1,326.69c7.56-3.52,18.19-3.6,23.19,3.88c2.05,3.06,2.46,6.48,1.61,9.84c-0.89,3.57-2.9,6.68-5.69,9.21
			c-1.37,1.24-3.09,2.04-4.72,3.18c-2.25,1.57-3.97,4.3-2.31,6.96c1.57,2.52,5.03,2.23,7.6,2.46c2.42,0.22,4.83,0.52,7.17,1.19
			c3.67,1.05,7.39,3.44,8.46,7.05c0.26,0.89,0.33,1.42,0.26,2.41c-0.03,0.47-0.33,1.58-0.55,2.02c-0.74,1.55-1.89,2.78-3.18,3.76
			c-3.95,2.99-8.97,4.25-13.89,4.95c-5.72,0.81-11.6,0.48-17.21-0.87c-3.75-0.9-5.35,4.88-1.6,5.79c5.65,1.36,11.53,1.84,17.31,1.26
			c5.37-0.53,10.85-1.69,15.66-4.23c4.06-2.14,7.91-5.61,9.08-10.2c1.3-5.08-0.94-10.3-4.86-13.6c-4.41-3.71-9.93-4.84-15.52-5.41
			c-1.27-0.13-2.55-0.24-3.82-0.34c-0.7-0.05-0.22-0.13-0.51-0.06c-0.95,0.22,1.42,2.07,0.8,2.2c-0.01,0.01-0.02,0.03-0.03,0.04
			c-0.1,0.14-0.03,0.07,0.22-0.21c-0.05,0.02,0.5-0.34,0.55-0.38c2-1.17,3.89-2.37,5.59-3.96c6.71-6.27,10.1-16.74,5.34-25.15
			c-2.72-4.81-7.73-8.24-13.06-9.51c-6.43-1.54-13.03-0.2-18.92,2.54c-1.47,0.68-1.84,2.8-1.08,4.1
			C216.88,327.12,218.63,327.37,220.1,326.69L220.1,326.69z"/>
	</g>
</g>
<g>
	<g>
		<path class="st8" d="M266.58,383.62c2.12-8.43,4.27-16.86,6.45-25.28c2.11-8.17,4.08-16.41,6.48-24.5
			c1.22-4.11,2.73-8.07,5.08-11.68c-1.83-0.24-3.66-0.48-5.48-0.72c5.14,15.99,10.28,31.97,15.42,47.96
			c1.48,4.59,2.95,9.18,4.43,13.77c1.47-1.13,2.94-2.26,4.41-3.39c-0.45-0.26-0.9-0.51-1.35-0.77c-3.36-1.91-6.39,3.27-3.03,5.18
			c0.45,0.26,0.9,0.51,1.35,0.77c2.19,1.24,5.23-0.83,4.41-3.39c-5.14-15.99-10.28-31.97-15.42-47.96
			c-1.48-4.59-2.95-9.18-4.43-13.77c-0.81-2.51-4.06-2.9-5.48-0.72c-4.45,6.82-6.24,14.94-8.27,22.71
			c-2.23,8.49-4.43,16.99-6.61,25.49c-1.25,4.89-2.49,9.79-3.73,14.69C259.85,385.77,265.63,387.37,266.58,383.62L266.58,383.62z"/>
	</g>
</g>
<g>
	<g>
		<path class="st8" d="M271.92,362.56c7.32,0.25,14.65,0.19,21.96-0.2c1.62-0.09,3-1.32,3-3c0-1.56-1.37-3.09-3-3
			c-7.31,0.39-14.64,0.46-21.96,0.2c-1.62-0.06-3,1.42-3,3C268.92,361.23,270.3,362.5,271.92,362.56L271.92,362.56z"/>
	</g>
</g>
<g>
	<g>
		<path class="st8" d="M340.45,333.01c-0.32-9.26-8.43-16.75-17.79-15.66c-8.49,0.99-13.62,8.04-16.26,15.59
			c-1.35,3.85-2.07,7.88-2.62,11.91c-0.68,5-1,10.06-0.43,15.08c0.98,8.62,4.38,17.24,11.08,23.04c3.73,3.22,8.78,6.15,13.89,5.61
			c5.23-0.55,9.19-4.1,12.72-7.7c2.71-2.76-1.53-7-4.24-4.24c-2.27,2.31-4.79,4.97-7.97,5.8c-3.2,0.83-6.72-1.08-9.31-3.02
			c-5.29-3.97-8.44-10.38-9.73-16.82c-1.56-7.76-0.68-16.21,1.17-23.85c0.75-3.11,1.68-5.9,3.19-8.57c1.43-2.52,3.12-4.49,5.6-5.81
			c1.3-0.69,2.96-1.14,4.68-1.13c1.69,0.01,3.36,0.41,4.88,1.25c3.12,1.74,5.04,5.1,5.16,8.52
			C334.58,336.86,340.58,336.88,340.45,333.01L340.45,333.01z"/>
	</g>
</g>
<g>
	<g>
		<path class="st8" d="M346.19,327.05c-0.31,9.51-0.61,19.04,0.03,28.55c0.31,4.6,0.76,9.27,1.73,13.79
			c0.89,4.16,2.49,8.22,5.3,11.47c2.69,3.11,6.59,5.21,10.71,5.48c4.2,0.28,8.19-1.9,10.98-4.91c5.66-6.09,7.32-14.6,7.74-22.63
			c0.54-10.44-0.27-20.99-1.77-31.32c-0.37-2.55-4.39-2.89-5.48-0.72c-0.13,0.26-0.26,0.51-0.39,0.77c-0.73,1.45-0.38,3.25,1.08,4.1
			c1.33,0.78,3.37,0.38,4.1-1.08c0.13-0.26,0.26-0.51,0.39-0.77c-1.83-0.24-3.66-0.48-5.48-0.72c1.22,8.4,1.77,16.9,1.68,25.38
			c-0.07,6.78-0.5,14.04-4.09,19.99c-1.57,2.61-3.86,5.16-6.96,5.81c-2.56,0.54-5.46-0.81-7.48-2.81c-2.43-2.4-3.64-5.74-4.4-9.03
			c-0.9-3.88-1.29-7.88-1.59-11.84c-0.74-9.83-0.42-19.69-0.1-29.53C352.31,323.19,346.31,323.19,346.19,327.05L346.19,327.05z"/>
	</g>
</g>
<g>
	<g>
		<path class="st8" d="M423.17,335.68c-0.24-5.68-1.03-11.64-5.99-15.2c-4.11-2.95-10.03-3.03-14.63-1.27
			c-4.85,1.85-9.17,5.41-11.51,10.11c-2.63,5.29-2.76,11.66,0.04,16.92c2.18,4.09,6.07,6.91,10.15,8.88
			c4.03,1.95,7.91,3.15,11.69,5.12c4.09,2.13,6.88,4.82,8.72,9.35c1,2.45,2.03,5.47,1.4,7.78c-0.46,1.7-1.75,3.28-3.26,4.35
			c-8.55,6.07-21.2,2.27-27.56-5.55c-1.02-1.26-3.18-1.06-4.24,0c-1.24,1.24-1.03,2.98,0,4.24c6.53,8.02,17.72,11.8,27.79,9.54
			c4.72-1.06,9.57-3.9,11.94-8.25c3-5.51,0.91-11.92-1.81-17.12c-2.27-4.34-5.92-7.48-10.24-9.68c-3.95-2.01-7.96-3.27-11.69-5.11
			c-3.69-1.82-6.8-3.86-8.22-7.71c-1.63-4.42-0.52-9.4,2.49-12.81c1.62-1.84,3.77-3.44,5.91-4.28c1.05-0.41,2.51-0.78,3.33-0.86
			c1.2-0.13,2.49-0.09,3.38,0.09c1.28,0.27,1.96,0.5,3.02,1.24c0.68,0.47,1.5,1.46,1.98,2.45c1.15,2.36,1.21,5.18,1.32,7.76
			c0.07,1.62,1.33,3,3,3C421.75,338.68,423.24,337.31,423.17,335.68L423.17,335.68z"/>
	</g>
</g>
<g>
	<g>
		<path class="st8" d="M465.33,324.96c-2.19,9.69-2.99,19.71-2.21,29.62c0.71,8.99,2.04,19.4,8.67,26.14
			c3.09,3.14,7.19,5.28,11.61,5.6c4.32,0.31,8.47-1.58,11.62-4.44c6.94-6.29,8.01-16.31,9.21-25.05c1.54-11.3,2.31-22.72-0.03-33.97
			c-0.33-1.59-2.2-2.51-3.69-2.1c-1.65,0.45-2.43,2.1-2.1,3.69c1.82,8.74,1.52,17.75,0.55,26.57c-0.47,4.31-1.06,8.63-1.85,12.89
			c-0.71,3.81-1.69,7.64-3.86,10.91c-1.75,2.64-4.35,4.74-7.43,5.39c-2.86,0.6-6.1-0.6-8.48-2.54c-6.08-4.95-7.32-13.87-8.04-21.2
			c-0.99-10-0.39-20.11,1.83-29.92c0.36-1.58-0.48-3.25-2.1-3.69C467.51,322.45,465.69,323.37,465.33,324.96L465.33,324.96z"/>
	</g>
</g>
<g>
	<g>
		<path class="st8" d="M531.08,325.71c0.55,19.33,0.67,38.67,0.35,58c-0.05,3.34,5.1,4.12,5.89,0.8c0.42-1.77,0.22-3.64-0.86-5.14
			c-0.95-1.31-2.61-1.95-4.1-1.08c-1.3,0.76-2.03,2.78-1.08,4.1c0.15,0.21,0.18,0.29,0.28,0.44c0.22,0.35-0.04,0.15-0.02,0.07
			c1.96,0.27,3.93,0.53,5.89,0.8c0.32-19.33,0.2-38.67-0.35-58C536.97,321.85,530.97,321.84,531.08,325.71L531.08,325.71z"/>
	</g>
</g>
<g>
	<g>
		<path class="st8" d="M521.89,327.76c12.48-0.21,24.96-0.41,37.43-0.62c3.86-0.06,3.87-6.06,0-6c-12.48,0.21-24.96,0.41-37.43,0.62
			C518.03,321.82,518.02,327.82,521.89,327.76L521.89,327.76z"/>
	</g>
</g>
<g>
	<g>
		<path class="st8" d="M518.56,388.47c13.08-0.77,26.16-1.54,39.24-2.32c1.62-0.1,3-1.31,3-3c0-1.55-1.37-3.1-3-3
			c-13.08,0.77-26.16,1.54-39.24,2.32c-1.62,0.1-3,1.31-3,3C515.56,387.02,516.94,388.56,518.56,388.47L518.56,388.47z"/>
	</g>
</g>
</svg>
