<?xml version="1.0" encoding="utf-8"?>
<!-- Generator: Adobe Adobe Illustrator 24.2.0, SVG Export Plug-In . SVG Version: 6.00 Build 0)  -->
<svg version="1.1" id="Layer_1" xmlns="http://www.w3.org/2000/svg" xmlns:xlink="http://www.w3.org/1999/xlink" x="0px" y="0px"
	 width="464px" height="420px" viewBox="0 0 464 420" style="enable-background:new 0 0 464 420;" xml:space="preserve">
<style type="text/css">
	.st0{fill:none;stroke:#000000;stroke-miterlimit:10;}
	.st1{fill:#5587BF;stroke:#000000;stroke-width:3;stroke-miterlimit:10;}
	.st2{fill:none;stroke:#000000;stroke-width:3;stroke-miterlimit:10;}
	.st3{fill:none;stroke:#FFFFFF;stroke-width:3;stroke-miterlimit:10;}
	.st4{fill:#D1E3FF;stroke:#000000;stroke-miterlimit:10;}
	.st5{fill:#808080;stroke:#000000;stroke-miterlimit:10;}
	.st6{fill:#A1A1A1;stroke:#000000;stroke-width:3;stroke-miterlimit:10;}
	.st7{fill:#E0E0E0;stroke:#000000;stroke-miterlimit:10;}
	.st8{fill:#FFFFFF;}
	.st9{fill:#A1A1A1;}
	.st10{fill:#5587BF;}
	.st11{fill:#595959;}
	.st12{stroke:#000000;stroke-width:1.5;stroke-miterlimit:10;}
	.st13{fill:#FFFFFF;stroke:#000000;stroke-width:3;stroke-miterlimit:10;}
</style>
<rect x="72.17" y="132.23" class="st2" width="64" height="64"/>
<rect x="136.17" y="132.23" class="st2" width="64" height="64"/>
<rect x="200.17" y="132.23" class="st2" width="64" height="64"/>
<rect x="264.17" y="132.23" class="st2" width="64" height="64"/>
<rect x="328.17" y="132.23" class="st2" width="64" height="64"/>
<rect x="329.17" y="196.23" class="st2" width="64" height="64"/>
<rect x="392.17" y="132.23" class="st2" width="64" height="64"/>
<rect x="392.17" y="68.23" class="st2" width="64" height="64"/>
<rect x="392.17" y="4.23" class="st2" width="64" height="64"/>
<rect x="200.17" y="196.23" class="st2" width="64" height="64"/>
<rect x="200.17" y="260.23" class="st2" width="64" height="64"/>
<rect x="136.17" y="260.23" class="st2" width="64" height="64"/>
<rect x="72.17" y="260.23" class="st2" width="64" height="64"/>
<rect x="8.17" y="260.23" class="st2" width="64" height="64"/>
<g>
	<g>
		<path class="st10" d="M89.87,183.33c1.56-6.07,3.2-12.12,4.91-18.15c0.85-2.97,1.71-5.94,2.6-8.91c0.44-1.48,0.89-2.96,1.34-4.44
			c0.24-0.78,0.48-1.56,0.72-2.33c0.1-0.31,0.19-0.62,0.29-0.93c0.06-0.21,0.13-0.42,0.2-0.62c0.22-0.56-0.11-0.33-0.99,0.67
			c-0.42-0.11-0.84-0.23-1.26-0.34c0.42,0.18,0.49,0.56,0.71,0.99c0.38,0.74,0.75,1.48,1.13,2.21c0.79,1.55,1.58,3.1,2.37,4.65
			c1.54,3.03,3.09,6.05,4.63,9.08c3.09,6.05,6.17,12.11,9.26,18.16c1.44-0.84,2.88-1.68,4.32-2.52c-0.28-0.43-0.55-0.87-0.83-1.3
			c-1.72-2.71-6.05-0.2-4.32,2.52c0.28,0.43,0.55,0.87,0.83,1.3c1.74,2.72,5.78,0.34,4.32-2.52c-5.12-10.04-10.24-20.08-15.35-30.12
			c-0.64-1.26-1.28-2.51-1.92-3.77c-0.57-1.11-1.22-2.24-2.34-2.88c-1.24-0.72-2.81-0.62-3.93,0.27c-1.06,0.84-1.41,2.12-1.79,3.36
			c-1.67,5.36-3.27,10.75-4.81,16.15c-1.72,6.03-3.35,12.08-4.91,18.15C84.25,185.12,89.07,186.45,89.87,183.33L89.87,183.33z"/>
	</g>
</g>
<g>
	<g>
		<path class="st10" d="M93.01,175.19c6.07-0.04,12.14-0.77,18.06-2.14c1.32-0.31,2.09-1.81,1.75-3.08
			c-0.37-1.35-1.76-2.05-3.08-1.75c-5.5,1.28-11.09,1.93-16.73,1.97c-1.35,0.01-2.5,1.14-2.5,2.5
			C90.51,174.04,91.65,175.2,93.01,175.19L93.01,175.19z"/>
	</g>
</g>
<g>
	<g>
		<path class="st10" d="M155.36,152.99c1.43,10.81,2.08,21.7,1.94,32.6c1.67,0,3.33,0,5,0c0-0.98-0.01-1.95-0.01-2.93
			c-0.01-3.22-5.01-3.22-5,0c0,0.98,0.01,1.95,0.01,2.93c0.01,3.22,4.96,3.22,5,0c0.14-10.9-0.5-21.79-1.94-32.6
			c-0.18-1.34-1.02-2.5-2.5-2.5C156.65,150.49,155.18,151.64,155.36,152.99L155.36,152.99z"/>
	</g>
</g>
<g>
	<g>
		<path class="st10" d="M160.03,152c3.75-3.72,10.06-4.81,14.64-1.96c2.3,1.43,2.82,3.86,1.66,6.27c-1.4,2.9-4.42,4.6-7.07,6.19
			c-1.6,0.97-1.64,3.36,0,4.32c1.85,1.08,3.88,1.6,5.96,1.99c1.73,0.33,3.61,0.55,5.18,1.39c2.67,1.43,3.3,4.7,2.49,7.4
			c-0.99,3.3-4.29,5.37-7.44,6.27c-4.45,1.27-9.2,0.53-13.67-0.28c-1.33-0.24-2.69,0.36-3.08,1.75c-0.33,1.21,0.41,2.83,1.75,3.08
			c8.07,1.45,17.4,2.3,23.82-3.92c5.12-4.96,5.61-14.46-1.02-18.44c-3.54-2.12-7.96-1.52-11.46-3.57c0,1.44,0,2.88,0,4.32
			c3.64-2.2,7.42-4.65,9.18-8.7c1.83-4.22,0.96-8.82-2.75-11.67c-6.42-4.92-16.16-3.51-21.72,2.02
			C154.21,150.74,157.74,154.27,160.03,152L160.03,152z"/>
	</g>
</g>
<g>
	<g>
		<path class="st10" d="M215.74,180.97c3.92-11.72,8.48-23.21,13.67-34.42c-1.44,0-2.88,0-4.32,0c4.99,11.55,9.75,23.21,14.29,34.94
			c1.39-0.81,2.79-1.62,4.18-2.43c-0.34-0.41-0.69-0.82-1.03-1.23c-0.87-1.03-2.64-0.9-3.54,0c-1.02,1.02-0.87,2.5,0,3.54
			c0.34,0.41,0.69,0.82,1.03,1.23c1.57,1.86,5.07-0.13,4.18-2.43c-4.7-12.14-9.64-24.19-14.8-36.14c-0.72-1.67-3.57-1.6-4.32,0
			c-5.37,11.6-10.12,23.49-14.18,35.62C209.89,182.7,214.72,184.01,215.74,180.97L215.74,180.97z"/>
	</g>
</g>
<g>
	<g>
		<path class="st10" d="M219.76,174.12c5.6,0.2,11.18-0.15,16.72-0.95c1.3-0.19,2.13-1.9,1.75-3.08c-0.46-1.42-1.68-1.95-3.08-1.75
			c-4.94,0.71-10.28,0.95-15.39,0.77c-1.31-0.05-2.56,1.18-2.5,2.5C217.33,173.01,218.36,174.07,219.76,174.12L219.76,174.12z"/>
	</g>
</g>
<g>
	<g>
		<path class="st10" d="M302.08,154.86c-0.46-5.95-6.73-9.37-12.19-7.46c-5.8,2.03-8.57,7.7-10.07,13.26
			c-1.39,5.18-2.05,10.91-0.53,16.13c1.56,5.32,5.5,9.54,10.81,11.23c6.05,1.93,12.99-0.23,16.97-5.16c0.85-1.05,1.03-2.51,0-3.54
			c-0.88-0.88-2.68-1.06-3.54,0c-2.45,3.04-6.23,4.87-10.18,4.33c-3.88-0.53-7.17-3.13-8.72-6.7c-1.5-3.45-1.44-7.55-0.83-11.19
			c0.68-4.03,1.76-8.82,4.77-11.78c1.33-1.31,3.27-2.4,5.19-2.12c1.49,0.21,3.19,1.4,3.31,3c0.1,1.35,1.07,2.5,2.5,2.5
			C300.85,157.36,302.18,156.21,302.08,154.86L302.08,154.86z"/>
	</g>
</g>
<g>
	<g>
		<path class="st10" d="M343.45,151.07c-1.46,6.54-1.97,13.29-1.32,19.97c0.53,5.41,1.7,11.88,6.97,14.72
			c4.81,2.59,10.77,1.06,14.7-2.4c4.42-3.89,5.95-10.05,6.6-15.65c0.87-7.37,0.32-14.89-1.41-22.1c-0.75-3.13-5.57-1.8-4.82,1.33
			c1.32,5.52,1.85,11.18,1.56,16.85c-0.24,4.71-0.87,9.76-3.51,13.78c-2.04,3.1-6.19,5.49-9.94,4.16c-3.95-1.41-4.72-6.61-5.1-10.21
			c-0.67-6.39-0.31-12.84,1.09-19.11C348.97,149.26,344.15,147.92,343.45,151.07L343.45,151.07z"/>
	</g>
</g>
<g>
	<g>
		<path class="st10" d="M432.59,148.76c-5.61-3.85-12.63-7.05-19.31-3.92c-5.74,2.69-8.46,9.52-4.75,15.01
			c1.77,2.62,4.36,4.56,7.08,6.11c3.11,1.77,6.38,3.26,9.71,4.56c2.76,1.07,6.05,1.63,8.54,3.29c2.3,1.53,1.41,4.07-0.29,5.82
			c-4.86,4.99-12.49,2.62-17.09-1.41c-1.01-0.89-2.54-1-3.54,0c-0.91,0.91-1.02,2.64,0,3.54c4.98,4.37,11.92,7.19,18.5,4.9
			c3.01-1.05,5.68-2.96,7.38-5.69c1.92-3.1,2.09-7.03-0.44-9.84c-2.01-2.23-5.06-3.13-7.81-4.03c-3.32-1.08-6.55-2.4-9.67-3.98
			c-3.63-1.83-11.84-6.09-8.38-11.36c1.58-2.41,4.6-3.42,7.36-3.21c3.74,0.29,7.15,2.45,10.16,4.52c1.11,0.76,2.77,0.21,3.42-0.9
			C434.21,150.94,433.71,149.52,432.59,148.76L432.59,148.76z"/>
	</g>
</g>
<g>
	<g>
		<path class="st11" d="M431.5,28.7c-0.4-5.07-5.55-8-10.31-7.05c-5.32,1.07-8.36,6.41-10.21,11.01c-1.07,2.65-1.79,5.43-2.19,8.26
			c-0.4,2.84-0.59,5.83,0.38,8.6c1.74,5.01,6.71,8.18,11.63,9.54c5.32,1.47,11.37,0.86,15.45-3.13c2.31-2.25-1.23-5.79-3.54-3.54
			c-2.27,2.22-5.59,2.75-8.64,2.27c-3.35-0.52-7.17-2.11-9.23-4.92c-2.39-3.25-1.34-8.11-0.39-11.69c0.97-3.64,2.49-7.98,5.55-10.41
			c1.22-0.97,2.62-1.42,3.98-1.08c0.65,0.16,1.3,0.45,1.73,0.82c0.48,0.41,0.75,0.88,0.79,1.32c0.11,1.35,1.07,2.5,2.5,2.5
			C430.27,31.2,431.61,30.05,431.5,28.7L431.5,28.7z"/>
	</g>
</g>
<g>
	<g>
		<path class="st11" d="M429.77,86.38c-4.31-4.27-10.43-7.81-16.62-5.57c-2.86,1.03-5.2,3.07-6.25,5.97
			c-1.02,2.85-0.45,6.04,0.93,8.66c3.11,5.91,9.93,7.59,15.95,8.77c2.85,0.56,6.16,1.18,8.13,3.53c1.48,1.76,1.33,3.81,0.13,5.66
			c-4.12,6.34-12.85,2.88-18.21,0.47c-1.23-0.55-2.69-0.36-3.42,0.9c-0.63,1.07-0.34,2.86,0.9,3.42c6.17,2.77,13.46,5.64,20,2.31
			c5.19-2.64,8.68-9.19,5.4-14.62c-3.64-6.01-10.99-5.93-16.98-7.69c-2.54-0.74-5.24-1.92-6.88-4.1c-1.32-1.76-2.05-4.31-0.94-6.34
			c1.16-2.12,4-2.88,6.25-2.59c3.17,0.4,5.87,2.58,8.06,4.75C428.52,92.18,432.06,88.65,429.77,86.38L429.77,86.38z"/>
	</g>
</g>
<g>
	<g>
		<path class="st10" d="M355.77,214.2c0.01,9.78,0.02,19.56,0.03,29.34c1.64-0.22,3.27-0.44,4.91-0.66
			c-0.19-0.52-0.38-1.04-0.57-1.56c-0.46-1.27-1.7-2.12-3.08-1.75c-1.22,0.34-2.21,1.8-1.75,3.08c0.19,0.52,0.38,1.04,0.57,1.56
			c0.93,2.54,4.91,2.3,4.91-0.66c-0.01-9.78-0.02-19.56-0.03-29.34C360.76,210.98,355.76,210.97,355.77,214.2L355.77,214.2z"/>
	</g>
</g>
<g>
	<g>
		<path class="st10" d="M345.29,215.24c5.38-0.13,10.77-0.27,16.15-0.4c1.33-0.03,2.65-0.07,3.98-0.1c1.18-0.03,2.52,0.08,3.66-0.31
			c2.59-0.88,3.63-4.69,0.87-6.13c-2.85-1.49-5.38,2.83-2.52,4.32c-0.06-0.04-0.12-0.09-0.18-0.13c-0.21-0.37-0.43-0.74-0.64-1.1
			c0.08-1.45,0.42-2.02,1.02-1.71c-0.11,0-0.22,0.01-0.33,0.01c-0.48-0.11-1.15,0.03-1.64,0.04c-0.94,0.02-1.87,0.05-2.81,0.07
			c-1.95,0.05-3.9,0.1-5.85,0.15c-3.9,0.1-7.8,0.2-11.71,0.29C342.08,210.32,342.06,215.32,345.29,215.24L345.29,215.24z"/>
	</g>
</g>
<g>
	<g>
		<path class="st10" d="M349.63,248.75c9.26,1.18,18.62,1.2,27.89,0.07c1.34-0.16,2.5-1.03,2.5-2.5c0-1.22-1.15-2.67-2.5-2.5
			c-9.27,1.14-18.63,1.11-27.89-0.07c-1.34-0.17-2.5,1.27-2.5,2.5C347.13,247.75,348.29,248.58,349.63,248.75L349.63,248.75z"/>
	</g>
</g>
<g>
	<g>
		<path class="st11" d="M216.05,218.52c0.72,9.7,1.43,19.39,2.15,29.09c0.09,1.24,0.88,2.3,2.17,2.46c1.16,0.14,2.49-0.55,2.74-1.79
			c0.13-0.63,0.26-1.25,0.39-1.88c0.27-1.32-0.38-2.7-1.75-3.08c-1.24-0.34-2.8,0.42-3.08,1.75c-0.13,0.63-0.26,1.25-0.39,1.88
			c1.64,0.22,3.27,0.44,4.91,0.66c-0.72-9.7-1.43-19.39-2.15-29.09c-0.1-1.35-1.08-2.5-2.5-2.5
			C217.27,216.02,215.95,217.17,216.05,218.52L216.05,218.52z"/>
	</g>
</g>
<g>
	<g>
		<path class="st11" d="M220.98,217.96c0.49-2.48,3.2-3.53,5.68-4.14c1.67-0.41,3.55-0.81,5.27-0.55c1.51,0.23,2.53,1.16,3.27,2.45
			c1.45,2.54,1.97,6.03,1.37,8.89c-0.65,3.11-2.6,5.11-5.62,6.02c-3.72,1.12-7.69,1.13-11.32,2.57c-1.25,0.5-2.13,1.67-1.75,3.08
			c0.33,1.19,1.81,2.25,3.08,1.75c3.91-1.55,8.22-1.42,12.15-2.85c4.28-1.55,7.44-4.87,8.32-9.41c0.82-4.23,0.2-9.17-2.1-12.88
			c-1.28-2.07-3.19-3.71-5.58-4.33c-2.44-0.63-5.04-0.26-7.47,0.23c-4.27,0.87-9.19,3.12-10.13,7.84c-0.26,1.32,0.38,2.7,1.75,3.08
			C219.13,220.05,220.71,219.29,220.98,217.96L220.98,217.96z"/>
	</g>
</g>
<g>
	<g>
		<path class="st11" d="M217.7,277.92c-0.69,8.56-1.37,17.11-2.06,25.67c-0.28,3.48-0.83,7.47,1.72,10.29
			c2.51,2.77,6.47,2.44,9.82,2.01c4.67-0.6,9.28-1.54,13.8-2.88c3.08-0.91,1.77-5.74-1.33-4.82c-4.45,1.32-9.02,2.32-13.64,2.84
			c-1.38,0.16-3.25,0.52-4.52-0.19c-1.3-0.73-1.16-2.63-1.11-3.9c0.2-4.69,0.74-9.39,1.11-14.07c0.4-4.98,0.8-9.97,1.2-14.95
			c0.11-1.35-1.23-2.5-2.5-2.5C218.76,275.42,217.81,276.57,217.7,277.92L217.7,277.92z"/>
	</g>
</g>
<g>
	<g>
		<path class="st11" d="M23.05,282.84c1.01,10.07,1.61,20.17,1.77,30.29c0.05,3.21,5.05,3.22,5,0c-0.17-10.12-0.76-20.22-1.77-30.29
			c-0.14-1.34-1.05-2.5-2.5-2.5C24.31,280.34,22.92,281.49,23.05,282.84L23.05,282.84z"/>
	</g>
</g>
<g>
	<g>
		<path class="st11" d="M45.41,279.74c-0.79,11.67,0.48,23.45,3.7,34.69c0.89,3.09,5.71,1.77,4.82-1.33
			c-3.11-10.85-4.29-22.1-3.52-33.36c0.09-1.35-1.21-2.5-2.5-2.5C46.48,277.24,45.5,278.39,45.41,279.74L45.41,279.74z"/>
	</g>
</g>
<g>
	<g>
		<path class="st11" d="M31.17,303.26c5.33-0.7,10.71-0.91,16.08-0.62c1.31,0.07,2.56-1.2,2.5-2.5c-0.06-1.42-1.1-2.42-2.5-2.5
			c-5.37-0.29-10.75-0.09-16.08,0.62c-1.29,0.17-2.57,1.03-2.5,2.5C28.73,301.97,29.78,303.45,31.17,303.26L31.17,303.26z"/>
	</g>
</g>
<g>
	<g>
		<path class="st11" d="M98.71,284.68c0.22,8.66,0.44,17.32,0.66,25.99c0.08,3.21,5.08,3.22,5,0c-0.22-8.66-0.44-17.32-0.66-25.99
			C103.63,281.47,98.63,281.46,98.71,284.68L98.71,284.68z"/>
	</g>
</g>
<g>
	<g>
		<path class="st11" d="M89.94,285.75c6.9-1.47,13.74-3.18,20.52-5.12c3.09-0.88,1.78-5.71-1.33-4.82
			c-6.78,1.94-13.63,3.64-20.52,5.12c-1.32,0.28-2.09,1.83-1.75,3.08C87.24,285.37,88.61,286.03,89.94,285.75L89.94,285.75z"/>
	</g>
</g>
<g>
	<g>
		<path class="st11" d="M150.9,311.09c-2.56-8.69-3.28-17.89-1.91-26.86c-1.52,0.2-3.05,0.4-4.57,0.6
			c3.79,5.6,8.07,11.44,14.87,13.43c1,0.29,2.34-0.18,2.82-1.15c2.07-4.21,4.31-8.33,6.73-12.36c0.56-0.94,1.14-1.87,1.72-2.8
			c0.15-0.24,1.06-1.34,1.01-1.58c0.02,0.07-1.76-0.64-1.86-0.46c-0.11,0.2,0.23,1.33,0.27,1.56c0.09,0.62,0.19,1.23,0.3,1.85
			c0.18,1.08,0.38,2.15,0.58,3.22c1.77,9.12,4.57,17.97,8.18,26.52c0.38,0.9,1.91,1.53,2.82,1.15c1.96-0.81,3.21-2.61,2.56-4.79
			c-0.92-3.07-5.75-1.76-4.82,1.33c0.55-1,0.59-1.28,0.11-0.84c0.37-0.21,0.74-0.43,1.1-0.64c-0.09,0.04-0.19,0.08-0.28,0.12
			c0.94,0.38,1.88,0.77,2.82,1.15c-3.14-7.41-5.53-15.16-7.21-23.03c-0.42-1.98-0.8-3.98-1.13-5.98c-0.29-1.77-0.33-3.79-1.72-5.12
			c-1.79-1.71-4.31-0.88-5.65,0.89c-1.21,1.6-2.21,3.41-3.24,5.13c-2.37,3.96-4.57,8.02-6.61,12.15c0.94-0.38,1.88-0.77,2.82-1.15
			c-5.44-1.59-8.87-6.68-11.88-11.13c-1.06-1.57-4.22-1.71-4.57,0.6c-1.5,9.88-0.91,19.92,1.91,29.52
			C146.99,315.5,151.82,314.19,150.9,311.09L150.9,311.09z"/>
	</g>
</g>
<g>
	<g>
		<path d="M115.52,386.97c-0.29,3.69-0.55,7.39-0.84,11.08c-0.14,1.78-0.28,3.55-0.45,5.33c-0.15,1.61-0.49,3.15-0.25,4.78
			c0.2,1.35,2.13,1.36,2.74,0.36c0.47-0.77,0.53-1.48,0.34-2.35c-0.41-1.89-3.3-1.09-2.89,0.8c-0.01,0.01-0.03,0.03-0.04,0.04
			c0.91,0.12,1.83,0.24,2.74,0.36c-0.21-1.4,0.27-2.99,0.39-4.39c0.16-1.78,0.31-3.55,0.44-5.33c0.28-3.55,0.52-7.11,0.8-10.67
			C118.67,385.04,115.67,385.05,115.52,386.97L115.52,386.97z"/>
	</g>
</g>
<g>
	<g>
		<path d="M118.82,387.72c2.17-0.74,4.42-1.22,6.71-1.35c1.16-0.07,2.33-0.06,3.49,0.04c0.38,0.03,0.78,0.07,1.13,0.21
			c0.34,0.14,0.52,0.33,0.63,0.51c0.09,0.14,0.17,0.46,0.17,0.63c0.02,0.48-0.01,0.66-0.11,1.06c-0.2,0.8-0.56,1.45-1.06,2.16
			c-1.05,1.46-2.49,2.65-4.05,3.53c-1.81,1.01-3.84,1.57-5.91,1.61c-1.93,0.04-1.93,3.04,0,3c4.83-0.1,9.4-2.45,12.32-6.3
			c1.29-1.71,2.28-4.09,1.64-6.25c-0.86-2.87-3.87-3.19-6.43-3.22c-3.16-0.04-6.34,0.48-9.33,1.49c-0.77,0.26-1.27,1.03-1.05,1.85
			C117.18,387.42,118.05,387.98,118.82,387.72L118.82,387.72z"/>
	</g>
</g>
<g>
	<g>
		<path d="M139.44,389.38c-1.05,3.09-1.55,6.39-1.43,9.66c0.1,2.72,0.24,6.54,3.02,7.93c2.52,1.26,5.47,0.16,7.2-1.88
			c1.94-2.28,3.11-5.33,3.96-8.17c1.03-3.44,1.48-7.06,1.34-10.65c-0.07-1.92-3.07-1.93-3,0c0.12,3.28-0.26,6.53-1.19,9.69
			c-0.48,1.62-1.08,3.19-1.84,4.7c-0.59,1.18-1.28,2.45-2.38,3.24c-0.79,0.56-2.04,0.9-2.92,0.31c-1.07-0.73-1.05-2.82-1.15-3.95
			c-0.29-3.43,0.15-6.82,1.25-10.08C142.95,388.35,140.06,387.56,139.44,389.38L139.44,389.38z"/>
	</g>
</g>
<g>
	<g>
		<path d="M163.58,388.39c2-0.37,4-0.74,6-1.1c0.2-0.04,1.2-0.07,1.36-0.23c-0.06-0.09-0.13-0.18-0.19-0.28c0,0.02,0,0.04-0.01,0.06
			c-0.04,0.06-0.02,0.17-0.06,0.23c-0.38,0.6-0.68,1.1-1.19,1.63c-2.32,2.41-4.99,4.45-7.51,6.63c-2.44,2.12-4.88,4.46-6.48,7.3
			c-0.81,1.44-1.03,3.19,0.18,4.48c1.01,1.07,2.54,1.45,3.97,1.56c4.31,0.32,8.98-0.63,13.06-1.94c1.83-0.59,1.05-3.48-0.8-2.89
			c-3.77,1.21-7.75,1.93-11.73,1.86c-0.59-0.01-1.21-0.06-1.77-0.29c-0.69-0.29-0.72-0.46-0.42-1.09c0.67-1.43,1.85-2.72,2.92-3.85
			c2.25-2.38,4.86-4.39,7.34-6.52c1.24-1.07,2.46-2.17,3.58-3.37c1.02-1.08,1.97-2.41,1.89-3.98c-0.11-2.15-2.12-2.71-3.92-2.41
			c-2.35,0.4-4.69,0.86-7.04,1.29C160.88,385.85,161.69,388.74,163.58,388.39L163.58,388.39z"/>
	</g>
</g>
<g>
	<g>
		<path d="M184.56,389.07c2.1-0.29,4.2-0.58,6.3-0.86c0.97-0.13,1.94-0.32,2.91-0.39c0.19-0.01,0.37-0.02,0.56,0
			c0.18,0.01-0.05-0.1-0.04-0.19c-0.03,0.36-0.38,0.76-0.61,1.01c-1.27,1.44-2.82,2.66-4.14,4.07c-1.31,1.4-2.54,2.86-3.72,4.37
			c-1.16,1.5-2.3,3.03-3.29,4.65c-0.9,1.48-1.63,3.25-1.09,4.99c0.98,3.19,4.84,3.5,7.64,3.53c3.35,0.04,7.06-0.58,8.95-3.67
			c1.01-1.65-1.59-3.16-2.59-1.51c-1.43,2.35-4.86,2.26-7.27,2.16c-1.09-0.04-2.75-0.04-3.56-0.9c-1.08-1.14,0.5-3.08,1.15-4.05
			c2.06-3.08,4.41-5.96,7.01-8.6c1.75-1.78,6.55-5.18,3.71-8.03c-1.47-1.47-3.97-0.68-5.75-0.44c-2.32,0.32-4.64,0.64-6.96,0.95
			c-0.81,0.11-1.23,1.14-1.05,1.85C182.94,388.89,183.76,389.18,184.56,389.07L184.56,389.07z"/>
	</g>
</g>
<g>
	<g>
		<path d="M206.52,390.77c-0.82,2.67-1.5,5.39-2.02,8.14c-0.26,1.4-0.48,2.81-0.67,4.22c-0.18,1.37-0.39,2.76,0.17,4.08
			c0.87,2.01,3.16,2.77,5.21,2.56c2.48-0.26,4.42-1.98,6.83-2.44c0.8-0.15,1.25-1.11,1.05-1.85c-0.23-0.84-1.05-1.2-1.85-1.05
			c-2.05,0.38-3.7,1.73-5.68,2.24c-1.17,0.3-2.85,0.2-2.94-1.3c-0.06-1.08,0.2-2.23,0.36-3.3c0.18-1.17,0.39-2.34,0.63-3.5
			c0.48-2.37,1.09-4.72,1.8-7.03C209.99,389.72,207.09,388.92,206.52,390.77L206.52,390.77z"/>
	</g>
</g>
<g>
	<g>
		<path d="M224.09,389.31c-0.47,5.81-0.93,11.62-1.4,17.42c1,0,2,0,3,0c0.02-0.54,0.04-1.08,0.06-1.62c0.08-1.93-2.92-1.93-3,0
			c-0.02,0.54-0.04,1.08-0.06,1.62c-0.08,1.95,2.85,1.9,3,0c0.47-5.81,0.93-11.62,1.4-17.42
			C227.25,387.38,224.25,387.39,224.09,389.31L224.09,389.31z"/>
	</g>
</g>
<g>
	<g>
		<path d="M227.07,390.09c2.24-0.76,4.53-1.37,6.85-1.81c0.77-0.15,1.28-1.12,1.05-1.85c-0.27-0.82-1.02-1.21-1.85-1.05
			c-2.32,0.45-4.61,1.05-6.85,1.81c-0.74,0.25-1.31,1.04-1.05,1.85C225.46,389.78,226.27,390.36,227.07,390.09L227.07,390.09z"/>
	</g>
</g>
<g>
	<g>
		<path d="M226.37,400.38c1.72-0.33,3.44-0.66,5.16-1c0.77-0.15,1.28-1.12,1.05-1.85c-0.27-0.82-1.02-1.21-1.85-1.05
			c-1.72,0.33-3.44,0.66-5.16,1c-0.77,0.15-1.28,1.12-1.05,1.85C224.8,400.16,225.55,400.54,226.37,400.38L226.37,400.38z"/>
	</g>
</g>
<g>
	<g>
		<path d="M225.24,408.54c2.93,0.42,5.86,0.3,8.73-0.44c0.76-0.2,1.29-1.08,1.05-1.85c-0.25-0.78-1.03-1.26-1.85-1.05
			c-0.63,0.16-1.27,0.3-1.92,0.4c-0.01,0-0.48,0.07-0.2,0.03c-0.15,0.02-0.3,0.04-0.45,0.05c-0.33,0.03-0.65,0.06-0.98,0.08
			c-0.63,0.04-1.26,0.04-1.89,0.02c-0.3-0.01-0.6-0.03-0.9-0.06c-0.15-0.01-0.3-0.03-0.45-0.04c-0.05-0.01-0.63-0.08-0.35-0.04
			c-0.77-0.11-1.65,0.19-1.85,1.05C224.03,407.4,224.41,408.42,225.24,408.54L225.24,408.54z"/>
	</g>
</g>
<g>
	<g>
		<path d="M274.75,386.18c-2.18-7.12-14.84-0.65-9.94,5.28c2.03,2.45,5.28,3.62,7.5,5.89c1.49,1.52,2.93,4.67,1.11,6.51
			c-1.07,1.08-2.8,1-4.17,0.74c-0.77-0.14-1.54-0.34-2.29-0.57c-0.31-0.1-0.63-0.19-0.92-0.34c-0.12-0.06-0.53-0.36-0.53-0.3
			c-0.1-0.81-0.62-1.49-1.5-1.5c-0.74-0.01-1.6,0.7-1.5,1.5c0.37,3.14,4.15,3.87,6.77,4.23c2.9,0.4,6.08-0.37,7.38-3.27
			c1.13-2.53,0.46-5.65-1.13-7.83c-1.97-2.69-4.99-4.1-7.53-6.14c-0.53-0.43-1.36-1.07-1.33-1.83c0.03-0.7,0.78-1.28,1.3-1.64
			c0.98-0.68,3.36-1.67,3.9,0.07C272.42,388.82,275.32,388.04,274.75,386.18L274.75,386.18z"/>
	</g>
</g>
<g>
	<g>
		<path d="M282.66,386.57c-2.32,2.97-3.98,6.46-4.46,10.23c-0.39,3.03,0.24,6.51,2.96,8.31c2.81,1.87,6.84,0.86,8.91-1.65
			c2.23-2.71,2.58-6.52,1.6-9.81c-1.06-3.54-3.61-6.61-6.94-8.24c-1.73-0.84-3.25,1.74-1.51,2.59c4.24,2.08,7.46,7.52,5.4,12.2
			c-0.85,1.93-3.12,3.52-5.28,2.68c-2.16-0.84-2.39-3.63-2.19-5.6c0.32-3.07,1.75-6.17,3.64-8.59c0.5-0.64,0.62-1.5,0-2.12
			C284.26,386.05,283.16,385.93,282.66,386.57L282.66,386.57z"/>
	</g>
</g>
<g>
	<g>
		<path d="M297.38,387.6c-0.19,2.45-0.39,4.9-0.58,7.35c-0.1,1.23-0.19,2.45-0.29,3.68c-0.08,1.05-0.26,2.15-0.14,3.2
			c0.58,5.37,7.41,3.13,10.46,1.67c0.73-0.35,0.92-1.39,0.54-2.05c-0.44-0.75-1.32-0.89-2.05-0.54c-1.43,0.68-3.15,1.34-4.76,1.37
			c-0.39,0.01-0.92,0.01-1.13-0.36c-0.31-0.55-0.05-1.59-0.01-2.18c0.32-4.05,0.64-8.1,0.96-12.15c0.06-0.81-0.74-1.5-1.5-1.5
			C298.02,386.1,297.45,386.79,297.38,387.6L297.38,387.6z"/>
	</g>
</g>
<g>
	<g>
		<path d="M307,389.7c0.43,2.25,1.05,4.45,1.88,6.59c0.8,2.06,1.71,4.22,2.96,6.06c0.65,0.96,1.67,1.67,2.88,1.39
			c1.05-0.25,1.69-1.16,2.06-2.11c0.36-0.93,0.46-1.97,0.68-2.94c0.25-1.13,0.55-2.25,0.87-3.36c0.75-2.54,1.69-5.02,2.83-7.41
			c0.35-0.73,0.2-1.62-0.54-2.05c-0.65-0.38-1.7-0.2-2.05,0.54c-1.12,2.38-2.1,4.82-2.89,7.33c-0.39,1.24-0.73,2.49-1.02,3.75
			c-0.24,1.01-0.3,2.24-0.7,3.16c-0.05,0.11-0.16,0.29-0.16,0.28c0.1-0.08,0.22-0.13,0.36-0.13c0.4,0.21,0.47,0.2,0.22-0.01
			c-0.17-0.48-0.55-0.95-0.79-1.39c-0.58-1.07-1.11-2.16-1.58-3.29c-0.96-2.32-1.66-4.74-2.13-7.21c-0.15-0.8-1.11-1.25-1.85-1.05
			C307.22,388.08,306.85,388.9,307,389.7L307,389.7z"/>
	</g>
</g>
<g>
	<g>
		<path d="M325.55,389.67c-0.62,5.64-1.25,11.27-1.87,16.91c1,0,2,0,3,0c0.02-0.26,0.03-0.52,0.05-0.78c0.12-1.93-2.88-1.92-3,0
			c-0.02,0.26-0.03,0.52-0.05,0.78c-0.05,0.81,0.73,1.5,1.5,1.5c0.89,0,1.41-0.69,1.5-1.5c0.62-5.64,1.25-11.27,1.87-16.91
			c0.09-0.81-0.75-1.5-1.5-1.5C326.17,388.17,325.64,388.86,325.55,389.67L325.55,389.67z"/>
	</g>
</g>
<g>
	<g>
		<path d="M328.39,389.59c0.46-0.26,0.93-0.5,1.41-0.72c0.09-0.04,0.21-0.08,0.29-0.13c-0.2,0.08-0.22,0.09-0.07,0.03
			c0.07-0.03,0.13-0.05,0.2-0.08c0.23-0.09,0.46-0.18,0.69-0.26c0.96-0.34,1.95-0.59,2.96-0.75c0.35-0.06,0.73-0.4,0.9-0.69
			c0.19-0.32,0.27-0.8,0.15-1.16c-0.27-0.84-1.01-1.19-1.85-1.05c-2.17,0.36-4.28,1.13-6.19,2.21c-0.68,0.39-0.97,1.38-0.54,2.05
			C326.79,389.74,327.66,390,328.39,389.59L328.39,389.59z"/>
	</g>
</g>
<g>
	<g>
		<path d="M329.05,397.61c1.26-0.46,2.52-0.91,3.78-1.37c0.37-0.14,0.69-0.34,0.9-0.69c0.19-0.32,0.27-0.8,0.15-1.16
			c-0.12-0.36-0.34-0.71-0.69-0.9c-0.34-0.18-0.78-0.29-1.16-0.15c-1.26,0.46-2.52,0.91-3.78,1.37c-0.37,0.14-0.69,0.34-0.9,0.69
			c-0.19,0.32-0.27,0.8-0.15,1.16c0.12,0.36,0.34,0.71,0.69,0.9C328.24,397.64,328.68,397.74,329.05,397.61L329.05,397.61z"/>
	</g>
</g>
<g>
	<g>
		<path d="M326.66,406.92c2.29-0.33,4.58-0.67,6.87-1c0.35-0.05,0.73-0.4,0.9-0.69c0.19-0.32,0.27-0.8,0.15-1.16
			c-0.28-0.85-1.01-1.17-1.85-1.05c-2.29,0.33-4.58,0.67-6.87,1c-0.35,0.05-0.73,0.4-0.9,0.69c-0.19,0.32-0.27,0.8-0.15,1.16
			C325.09,406.73,325.82,407.05,326.66,406.92L326.66,406.92z"/>
	</g>
</g>
<g>
	<g>
		<path d="M340.87,387.93c-0.47,4.78-0.94,9.56-1.41,14.33c1,0,2,0,3,0c0.02-0.54,0.04-1.08,0.06-1.62c0.07-1.93-2.93-1.93-3,0
			c-0.02,0.54-0.04,1.08-0.06,1.62c-0.03,0.81,0.71,1.5,1.5,1.5c0.88,0,1.42-0.69,1.5-1.5c0.47-4.78,0.94-9.56,1.41-14.33
			c0.08-0.81-0.75-1.5-1.5-1.5C341.49,386.43,340.95,387.12,340.87,387.93L340.87,387.93z"/>
	</g>
</g>
<g>
	<g>
		<path d="M343.8,388.82c2.34-0.13,4.94-0.36,7.06,0.86c1.81,1.04,2.49,2.96,1.97,4.96c-1.15,4.4-6.83,6.38-10.83,6.86
			c-0.8,0.1-1.5,0.62-1.5,1.5c0,0.74,0.69,1.6,1.5,1.5c4.58-0.55,9.56-2.31,12.37-6.19c1.31-1.82,1.87-4.11,1.52-6.32
			c-0.34-2.21-1.85-4.06-3.82-5.07c-2.57-1.31-5.45-1.26-8.26-1.1C341.88,385.93,341.87,388.93,343.8,388.82L343.8,388.82z"/>
	</g>
</g>
<g>
	<g>
		<path d="M362.92,383.82c-0.1,4-0.21,8.01-0.31,12.01c-0.05,1.93,2.95,1.93,3,0c0.1-4,0.21-8.01,0.31-12.01
			C365.97,381.89,362.97,381.89,362.92,383.82L362.92,383.82z"/>
	</g>
</g>
<g>
	<g>
		<path d="M363.69,405.23c1.93,0,1.93-3,0-3C361.76,402.23,361.76,405.23,363.69,405.23L363.69,405.23z"/>
	</g>
</g>
</svg>
